<svg width="37" height="37" viewBox="0 0 37 37" fill="none" xmlns="http://www.w3.org/2000/svg">
<path d="M18.5004 3.375C18.9982 3.375 19.2982 3.37474 19.5648 3.38965C21.0847 3.47472 22.512 3.92729 23.7553 4.66309C23.1187 5.21797 22.5986 5.90278 22.2367 6.67676C21.389 6.22194 20.4352 5.94229 19.4252 5.88574C19.2456 5.8757 19.0306 5.875 18.5004 5.875C17.9703 5.875 17.7551 5.87572 17.5756 5.88574C14.4263 6.06189 11.8183 8.39534 11.2953 11.5059C11.2655 11.6833 11.2416 11.8967 11.183 12.4238L10.7953 15.918C10.6896 16.869 10.6267 17.4473 10.4926 18.0137C10.3604 18.5716 10.1768 19.1167 9.94376 19.6406C9.70726 20.1723 9.40662 20.67 8.91446 21.4902L7.51505 23.8223C7.21595 24.3208 7.00707 24.6715 6.86758 24.9375C7.16751 24.9548 7.57568 24.958 8.15762 24.958H28.8432C29.4245 24.958 29.8324 24.9548 30.1322 24.9375C29.9928 24.6716 29.7847 24.3205 29.4857 23.8223L28.0863 21.4902C27.5941 20.6699 27.2935 20.1723 27.057 19.6406C26.824 19.1167 26.6404 18.5716 26.5082 18.0137C26.374 17.4473 26.3112 16.8691 26.2055 15.918L26.1156 15.1084C26.6358 15.2532 27.1831 15.3339 27.7494 15.334C28.055 15.334 28.3554 15.3101 28.6488 15.2666L28.6908 15.6416C28.8029 16.6506 28.8499 17.0535 28.9408 17.4375C29.0373 17.8445 29.1712 18.2418 29.3412 18.624C29.5016 18.9845 29.7076 19.3337 30.2299 20.2041L31.6303 22.5361C32.0113 23.1711 32.3739 23.7692 32.5834 24.2744C32.7964 24.788 32.9994 25.5531 32.5668 26.3174C32.1342 27.081 31.3744 27.3002 30.8246 27.3818C30.2836 27.4621 29.5837 27.458 28.8432 27.458H8.15762C7.41711 27.458 6.71721 27.462 6.17618 27.3818C5.62635 27.3002 4.86675 27.0811 4.43399 26.3174C4.00122 25.553 4.20438 24.788 4.41739 24.2744C4.62696 23.7692 4.98951 23.1711 5.37051 22.5361L6.7709 20.2041C7.29315 19.3337 7.49922 18.9846 7.65958 18.624C7.82953 18.2418 7.96352 17.8445 8.05997 17.4375C8.15091 17.0535 8.19786 16.6505 8.30997 15.6416L8.69864 12.1484C8.75363 11.6535 8.7862 11.3552 8.83047 11.0918C9.54702 6.82911 13.1202 3.63103 17.4359 3.38965C17.7026 3.37476 18.0026 3.375 18.5004 3.375ZM26.1029 6.64551C27.1522 7.88247 27.8864 9.4029 28.1703 11.0918C28.2146 11.3552 28.2472 11.6535 28.3022 12.1484L28.3158 12.2793C28.1322 12.3134 27.943 12.334 27.7494 12.334L27.5912 12.3301C26.8725 12.2936 26.2195 12.0097 25.7133 11.5635C25.7102 11.5437 25.7086 11.5245 25.7055 11.5059C25.5457 10.5557 25.1898 9.67888 24.685 8.91309C24.7888 7.95785 25.3299 7.13537 26.1029 6.64551Z" fill="#33363F"/>
<path d="M14.0326 27.2331C14.2961 28.7082 14.8767 30.0117 15.6845 30.9414C16.4922 31.8711 17.4819 32.375 18.5 32.375C19.5181 32.375 20.5078 31.8711 21.3155 30.9414C22.1233 30.0117 22.7039 28.7082 22.9674 27.2331" stroke="#33363F" stroke-width="2.5" stroke-linecap="round"/>
<circle cx="27.75" cy="9.24996" r="3.58333" fill="#2B84E9" stroke="#2B84E9"/>
</svg>
