<svg width="42" height="42" viewBox="0 0 42 42" fill="none" xmlns="http://www.w3.org/2000/svg">
<path d="M15.3831 41.1549C11.8391 40.1788 8.79487 38.404 6.25709 35.8756C2.87636 32.5074 0.890187 28.4064 0.1999 23.6559C-0.385767 19.6253 0.34644 15.8177 1.99081 12.1759C3.67998 8.43488 6.31658 5.4635 9.80265 3.2612C13.4932 0.929715 17.5316 -0.150142 21.88 0.0167548C30.965 0.365453 38.9134 6.62131 41.2122 15.4339C43.1225 22.7569 41.5642 29.3858 36.4774 35.0608C33.0324 38.9042 28.6814 41.0343 23.5532 41.7669C20.7678 42.1649 18.1136 41.8017 15.3831 41.1549ZM15.5631 22.8462C15.9147 22.8387 16.2662 22.8313 16.7563 22.8585C17.7164 22.7768 18.6765 22.695 19.6976 22.7192C19.7184 22.9668 19.7647 23.2152 19.7563 23.4617C19.6419 26.8007 19.0169 30.0444 17.9111 33.1962C17.6485 33.9447 17.3758 34.6897 17.0716 35.5369C18.0084 35.5369 18.8342 35.4991 19.6543 35.5506C20.178 35.5835 20.409 35.3864 20.5755 34.9158C21.9785 30.9488 22.9709 26.911 22.7517 22.6594C22.7261 22.1632 22.8752 21.9146 23.3814 21.7324C26.0036 20.7883 28.3377 19.3499 30.412 17.4894C30.5468 17.3685 30.7146 17.2843 31.0066 17.0902C31.0066 18.1951 31.0295 19.1405 30.9976 20.084C30.9797 20.6148 31.1781 20.8008 31.6986 20.7737C32.3246 20.7412 32.9539 20.753 33.5811 20.7697C33.9678 20.78 34.1093 20.631 34.1081 20.2398C34.1006 17.7573 34.1295 15.2746 34.1059 12.7924C34.0972 11.881 33.4649 11.295 32.5658 11.2905C30.1807 11.2787 27.7955 11.2855 25.4104 11.29C25.2691 11.2902 25.1278 11.3357 24.9888 11.3598C24.9888 12.3423 24.9888 13.2778 24.9888 14.3175C26.3995 14.3175 27.7537 14.3175 29.1524 14.3175C29.0807 14.4677 29.0695 14.5212 29.0373 14.5544C27.231 16.4177 25.0732 17.7527 22.6773 18.7098C22.559 18.757 22.1999 18.4677 22.1076 18.2649C21.8393 17.6756 21.6892 17.0327 21.4227 16.4423C19.7259 12.6832 16.4787 10.5484 12.1512 11.4755C8.43229 12.2723 6.65476 16.8593 8.93102 19.9054C10.3729 21.835 12.4006 22.5972 14.815 22.726C15.0221 22.7539 15.2292 22.7817 15.5631 22.8462Z" fill="#2B84E9"/>
<path d="M16.6179 22.824C16.2664 22.8315 15.9148 22.8389 15.4774 22.7798C15.1777 22.6884 14.9638 22.6637 14.75 22.6389C12.4008 22.5973 10.373 21.8352 8.93114 19.9056C6.65488 16.8595 8.43241 12.2725 12.1513 11.4757C16.4788 10.5486 19.726 12.6833 21.4229 16.4425C21.6893 17.0329 21.8394 17.6757 22.1077 18.2651C22.2001 18.4679 22.5591 18.7572 22.6774 18.7099C25.0733 17.7529 27.2311 16.4179 29.0374 14.5546C29.0696 14.5214 29.0808 14.4679 29.1525 14.3177C27.7538 14.3177 26.3996 14.3177 24.9889 14.3177C24.9889 13.2779 24.9889 12.3424 24.9889 11.36C25.1279 11.3359 25.2692 11.2904 25.4105 11.2901C27.7957 11.2856 30.1809 11.2789 32.566 11.2907C33.465 11.2951 34.0974 11.8812 34.106 12.7926C34.1297 15.2748 34.1007 17.7575 34.1082 20.24C34.1094 20.6312 33.9679 20.7801 33.5813 20.7699C32.954 20.7532 32.3248 20.7414 31.6988 20.7739C31.1782 20.801 30.9798 20.615 30.9977 20.0842C31.0296 19.1407 31.0067 18.1953 31.0067 17.0904C30.7147 17.2844 30.5469 17.3686 30.4121 17.4896C28.3378 19.35 26.0037 20.7885 23.3815 21.7325C22.8753 21.9148 22.7262 22.1634 22.7518 22.6596C22.971 26.9112 21.9786 30.949 20.5756 34.916C20.4092 35.3866 20.1781 35.5837 19.6544 35.5508C18.8343 35.4993 18.0085 35.5371 17.0717 35.5371C17.3759 34.6899 17.6486 33.9449 17.9112 33.1963C19.017 30.0446 19.642 26.8009 19.7564 23.4619C19.7649 23.2154 19.7186 22.967 19.6692 22.6014C19.5197 21.5167 19.3987 20.5501 19.2641 19.524C19.1965 19.2982 19.1396 19.1329 19.0891 18.9656C18.6321 17.4513 17.9527 16.0749 16.6278 15.1195C15.3317 14.1848 13.9082 14.0563 12.4272 14.568C11.6204 14.8467 10.9495 15.939 10.948 16.8403C10.9463 17.8126 11.7643 18.898 12.9442 19.2233C13.9945 19.5128 15.0959 19.6173 16.1869 19.8581C16.3386 20.8831 16.4783 21.8536 16.6179 22.824Z" fill="#FBFCFD"/>
<path d="M16.6871 22.8412C16.4782 21.8534 16.3386 20.8829 16.2556 19.8395C17.3007 19.7055 18.2892 19.6444 19.2777 19.5833C19.3987 20.5499 19.5197 21.5166 19.6387 22.5482C18.6766 22.695 17.7165 22.7768 16.6871 22.8412Z" fill="#E3E5E8"/>
<path d="M14.7825 22.6822C14.9638 22.6633 15.1776 22.6881 15.4139 22.7612C15.2292 22.7816 15.0221 22.7537 14.7825 22.6822Z" fill="#E3E5E8"/>
<path d="M19.2641 19.524C18.2892 19.6446 17.3008 19.7057 16.2435 19.7851C15.096 19.6173 13.9945 19.5129 12.9442 19.2233C11.7643 18.898 10.9463 17.8126 10.948 16.8403C10.9495 15.939 11.6204 14.8467 12.4273 14.568C13.9082 14.0563 15.3318 14.1848 16.6279 15.1195C17.9527 16.0749 18.6321 17.4513 19.0891 18.9656C19.1396 19.1329 19.1966 19.2983 19.2641 19.524Z" fill="#2B84E9"/>
</svg>
