<svg width="31" height="31" viewBox="0 0 31 31" fill="none" xmlns="http://www.w3.org/2000/svg">
<path opacity="0.62" d="M22.0383 6.43164C23.6937 5.87983 24.5221 5.60344 24.9592 6.04004C25.3962 6.47703 25.1204 7.30531 24.5685 8.96094L19.9807 22.7246C19.1963 25.0777 18.8039 26.2539 18.0832 26.2539C17.3625 26.2537 16.97 25.0775 16.1857 22.7246L14.5617 17.8516L20.0822 12.332C20.4725 11.9416 20.4725 11.3085 20.0822 10.918C19.6917 10.5275 19.0587 10.5276 18.6682 10.918L13.1476 16.4375L8.27557 14.8135C5.92236 14.0291 4.7453 13.6368 4.7453 12.916C4.74577 12.1955 5.92284 11.8038 8.27557 11.0195L22.0383 6.43164Z" fill="#2B84E9"/>
</svg>
